<?xml version="1.0" encoding="UTF-8" standalone="no"?>
<!DOCTYPE svg PUBLIC "-//W3C//DTD SVG 1.1//EN" "http://www.w3.org/Graphics/SVG/1.1/DTD/svg11.dtd">
<svg width="100%" height="100%" viewBox="0 0 138 119" version="1.1" xmlns="http://www.w3.org/2000/svg" xmlns:xlink="http://www.w3.org/1999/xlink" xml:space="preserve" xmlns:serif="http://www.serif.com/" style="fill-rule:evenodd;clip-rule:evenodd;stroke-linejoin:round;stroke-miterlimit:2;">
    <g transform="matrix(1,0,0,1,-460.103,-662.972)">
        <g transform="matrix(2.92976,0,0,2.30474,0,0)">
            <g transform="matrix(0.341325,0,0,0.433889,0,0)">
                <path d="M597.397,697.439C597.397,693.434 592.439,691.003 582.523,690.145C581.76,690.049 579.711,690.002 576.374,690.002L562.072,690.002C557.4,687.237 551.346,684.615 543.909,682.136C536.472,679.657 527.701,677.321 517.595,675.128L538.761,674.699C551.632,679.562 563.645,681.993 574.8,681.993C578.996,681.993 581.093,680.801 581.093,678.418C581.093,675.843 578.566,674.127 573.513,673.269C567.316,672.125 554.588,671.553 535.328,671.553L519.454,666.261L543.051,665.403L542.05,662.972C533.564,663.83 524.602,664.259 515.163,664.259C513.066,664.259 511.016,664.235 509.014,664.188C507.011,664.14 505.009,664.068 503.007,663.973L504.58,665.975L515.163,666.118L533.612,671.982L512.303,672.983C506.01,671.267 500.314,670.027 495.213,669.265C490.112,668.502 485.559,668.121 481.555,668.121C474.69,668.121 471.258,669.694 471.258,672.84C471.258,675.7 474.976,677.13 482.413,677.13C485.75,677.13 490.112,677.011 495.499,676.773C500.886,676.535 507.297,676.129 514.734,675.557C526.461,678.322 536.067,680.873 543.552,683.209C551.036,685.545 556.399,687.809 559.641,690.002L547.199,690.002C541.669,687.332 532.277,685.711 519.025,685.139C516.355,685.044 512.637,684.972 507.87,684.925C503.102,684.877 497.286,684.853 490.422,684.853C487.085,684.853 483.795,684.996 480.554,685.282C477.312,685.568 474.023,686.093 470.686,686.855C463.63,688.476 460.103,690.288 460.103,692.29C460.103,694.102 461.151,695.341 463.249,696.008C465.346,696.676 469.208,697.01 474.833,697.01C475.787,697.01 477.145,696.914 478.909,696.723C480.673,696.533 482.937,696.247 485.702,695.865C492.09,694.721 498.86,693.863 506.01,693.291C517.261,692.433 531.038,692.004 547.342,692.004C576.04,707.284 590.389,725.096 590.389,745.438C590.389,754.223 585.24,761.767 574.943,768.07C563.598,774.851 548.867,778.242 530.752,778.242C511.588,778.242 496.381,774.946 485.13,768.354C471.877,760.518 465.251,749.052 465.251,733.956C465.251,722.968 470.209,714.371 480.125,708.165C488.515,702.73 498.669,700.013 510.587,700.013C524.984,700.013 538.427,703.97 550.917,711.885C564.265,720.103 570.939,729.514 570.939,740.12C570.939,753.782 562.501,760.613 545.625,760.613C532.659,760.613 520.312,757.46 508.585,751.154C495.999,744.467 489.707,736.68 489.707,727.793C489.707,722.347 491.947,718.095 496.428,715.038C500.814,712.267 506.249,710.882 512.732,710.882C517.308,710.882 521.17,711.597 524.316,713.027C527.749,714.743 529.465,716.936 529.465,719.606C529.465,719.892 529.393,720.297 529.25,720.821C529.107,721.346 528.94,721.894 528.75,722.466C528.559,723.038 528.392,723.586 528.249,724.111C528.106,724.635 528.035,725.04 528.035,725.326C528.035,726.375 528.893,726.9 530.609,726.9C532.42,726.9 533.326,725.708 533.326,723.324C533.326,714.267 526.461,709.738 512.732,709.738C505.772,709.738 500.051,711.168 495.57,714.028C490.803,717.175 488.42,721.513 488.42,727.043C488.42,736.768 494.855,745.11 507.726,752.07C513.638,755.121 519.716,757.457 525.961,759.078C532.206,760.699 538.761,761.509 545.625,761.509C563.455,761.509 572.369,754.358 572.369,740.057C572.369,729.283 565.647,719.606 552.204,711.025C539.142,702.73 525.127,698.583 510.158,698.583C497.763,698.583 487.132,701.586 478.265,707.593C468.064,714.457 462.963,723.992 462.963,736.196C462.963,750.878 469.542,762.32 482.699,770.519C488.706,774.237 495.666,777.074 503.579,779.028C511.493,780.983 520.359,781.96 530.18,781.96C550.869,781.96 567.078,778.051 578.805,770.233C588.911,763.464 593.964,755.264 593.964,745.635C593.964,724.468 579.472,706.544 550.488,691.861L562.501,692.004C573.18,698.297 582.857,701.443 591.533,701.443C595.442,701.443 597.397,700.108 597.397,697.439ZM596.253,696.58C596.253,699.059 594.679,700.299 591.533,700.299C583.715,700.299 574.848,697.486 564.932,691.861L576.374,691.861C579.234,691.861 581.093,691.909 581.951,692.004C591.485,692.671 596.253,694.197 596.253,696.58ZM579.52,678.418C579.52,679.943 577.804,680.706 574.371,680.706C564.456,680.706 553.253,678.465 540.763,673.984L561.643,673.984C567.65,673.984 572.131,674.413 575.086,675.271C578.042,676.129 579.52,677.178 579.52,678.418ZM509.872,673.269C504.819,673.269 499.455,673.507 493.783,673.984C488.11,674.461 482.461,674.699 476.835,674.699C474.166,674.699 472.831,673.936 472.831,672.411C472.831,670.409 476.025,669.408 482.413,669.408C488.801,669.408 497.954,670.695 509.872,673.269ZM543.623,690.002C536.758,690.002 530.084,690.073 523.601,690.216C517.118,690.359 510.777,690.669 504.58,691.146C500.48,691.527 496.404,691.933 492.352,692.362C488.3,692.791 484.224,693.291 480.125,693.863C476.788,694.34 474.19,694.697 472.33,694.936C470.471,695.174 469.446,695.293 469.256,695.293C464.202,695.293 461.676,694.388 461.676,692.576C461.676,690.955 465.06,689.382 471.83,687.857C478.218,686.522 484.272,685.854 489.993,685.854C519.358,685.854 537.235,687.237 543.623,690.002Z" style="fill:rgb(0,30,108);fill-rule:nonzero;"/>
            </g>
        </g>
    </g>
</svg>
