<?xml version="1.0" encoding="UTF-8" standalone="no"?>
<!DOCTYPE svg PUBLIC "-//W3C//DTD SVG 1.1//EN" "http://www.w3.org/Graphics/SVG/1.1/DTD/svg11.dtd">
<svg width="100%" height="100%" viewBox="0 0 1524 208" version="1.1" xmlns="http://www.w3.org/2000/svg" xmlns:xlink="http://www.w3.org/1999/xlink" xml:space="preserve" xmlns:serif="http://www.serif.com/" style="fill-rule:evenodd;clip-rule:evenodd;stroke-linejoin:round;stroke-miterlimit:2;">
    <g transform="matrix(1,0,0,1,-73.4639,-47.3419)">
        <g transform="matrix(2.92976,0,0,2.30474,0,0)">
            <g transform="matrix(0.341325,0,0,0.433889,0,0)">
                <path d="M154.204,190.349L154.204,110.095L151.985,110.095L151.985,118.85C151.985,142.866 138.97,145.368 124.955,145.368L114.944,145.368L114.944,79.825C114.944,74.321 112.447,69.818 109.451,66.816L109.451,66.566L144.727,66.566C168.724,66.566 181.741,75.822 183.243,102.84L184.238,120.351L188.713,120.351L184.238,52.593L181.997,52.743L182.743,64.315L182.492,64.315C180.74,62.589 177.235,62.096 173.23,62.096L73.464,62.096L73.464,64.315L82.216,64.315C94.219,64.315 95.47,65.566 95.47,77.574L95.47,226.385C95.47,238.392 94.219,239.643 82.216,239.643L73.464,239.643L73.464,241.862L186.724,241.862C190.722,241.862 194.237,241.369 195.994,239.643L196.246,239.643L195.497,251.224L197.74,251.365L201.967,183.609L197.989,183.609L196.497,203.621C194.739,227.636 183.243,237.392 159.211,237.392L109.451,237.392L109.451,237.142C112.447,234.14 114.944,229.638 114.944,224.134L114.944,149.838L124.955,149.838C138.97,149.838 151.985,152.59 151.985,176.605L151.985,190.363L154.204,190.349Z" style="fill:rgb(0,30,108);fill-rule:nonzero;"/>
                <path d="M277.756,62.096L277.756,64.315L280.259,64.315C292.271,64.315 293.522,65.566 293.522,77.572L293.522,186.376C293.522,198.382 292.271,199.632 280.259,199.632L271.5,199.632L271.5,201.852L377.292,201.852C379.79,201.852 382.094,201.66 383.884,201.096L383.29,208.609C381.295,232.637 365.283,237.392 341.266,237.392L247.488,237.392L247.488,237.142C250.484,234.139 252.98,229.634 252.98,224.127L252.98,77.322C252.98,65.316 254.482,64.315 266.495,64.315L268.997,64.315L268.997,62.096L211.501,62.096L211.501,64.315L220.253,64.315C232.256,64.315 233.506,65.316 233.506,77.322L233.506,224.628C233.506,236.64 232.256,239.643 220.253,239.643L211.501,239.643L211.501,241.862L376.792,241.862C380.794,241.862 381.795,241.369 383.537,239.643L383.784,239.643L382.796,254.366L385.266,254.616L391.767,154.361L387.766,154.361L387.016,163.615C385.019,187.627 373.789,197.382 349.772,197.382L307.504,197.382L307.504,197.132C310.5,194.13 312.996,189.628 312.996,184.125L312.996,77.573C312.996,65.567 314.247,64.315 326.256,64.315L336.263,64.315L336.263,62.096L277.756,62.096Z" style="fill:rgb(0,30,108);fill-rule:nonzero;"/>
                <path d="M402.301,241.862L466.037,241.862L466.037,239.643L457.285,239.643C445.282,239.643 443.781,238.643 443.781,226.637L443.781,77.82C443.781,65.815 445.282,64.815 457.285,64.815L466.037,64.815L466.037,62.096L402.301,62.096L402.301,64.315L411.054,64.315C423.057,64.315 424.307,65.315 424.307,77.32L424.307,226.637C424.307,238.643 423.057,239.643 411.054,239.643L402.301,239.643L402.301,241.862Z" style="fill:rgb(0,30,108);fill-rule:nonzero;"/>
                <path d="M477.321,180.617L480.572,248.864L482.82,248.757L482.041,233.14C481.901,230.134 481.552,224.887 481.062,222.385L482.041,222.135C482.822,224.386 486.567,229.138 488.314,230.389C501.118,239.269 512.437,243.789 527.824,243.789C561.295,243.789 583.568,225.842 583.568,198.875C583.568,167.485 559.861,151.697 537.638,138.348C518.204,126.674 500.046,115.731 500.046,95.078C500.046,75.244 511.492,64.565 531.82,64.565C556.589,64.565 568.345,84.033 569.343,103.792L569.851,114.296L574.316,114.087L571.565,55.094L569.096,55.094L569.837,68.316C570.084,71.818 570.331,74.569 570.824,76.32L569.096,76.82C568.846,76.07 566.845,72.318 565.093,71.067C557.338,65.315 546.83,60.095 531.819,60.095C502.248,60.095 482.573,76.27 482.573,100.581C482.573,129.728 505.159,143.678 526.816,156.688C546.383,168.441 564.845,181.192 564.845,202.877C564.845,224.716 549.88,239.393 527.433,239.393C503.756,239.393 483.785,220.244 482.291,190.657L481.789,180.403L477.321,180.617Z" style="fill:rgb(0,30,108);fill-rule:nonzero;"/>
                <path d="M698.106,66.816L716.361,66.816C747.91,66.816 764.898,84.414 764.898,117.095C764.898,149.776 747.91,167.374 716.361,167.374L702.35,167.374L702.35,83.576C702.35,77.823 701.102,72.069 698.106,68.067L698.106,66.816ZM660.87,241.862L722.115,241.862L722.115,239.643L715.86,239.643C703.851,239.643 702.35,238.392 702.35,226.383L702.35,171.844L723.867,171.844C761.546,171.844 786.623,149.964 786.623,117.095C786.623,84.076 761.546,62.096 723.867,62.096L660.87,62.096L660.87,64.315L669.623,64.315C681.626,64.315 682.876,65.566 682.876,77.573L682.876,226.383C682.876,238.392 681.626,239.643 669.623,239.643L660.87,239.643L660.87,241.862Z" style="fill:rgb(0,30,108);fill-rule:nonzero;"/>
                <path d="M878.397,190.349L878.397,110.095L876.178,110.095L876.178,118.85C876.178,142.866 863.163,145.368 849.148,145.368L839.136,145.368L839.136,79.825C839.136,74.321 836.64,69.818 833.644,66.816L833.644,66.566L868.919,66.566C892.917,66.566 905.934,75.822 907.436,102.84L908.431,120.351L912.906,120.351L908.431,52.593L906.189,52.743L906.935,64.315L906.685,64.315C904.933,62.589 901.428,62.096 897.423,62.096L797.657,62.096L797.657,64.315L806.409,64.315C818.412,64.315 819.663,65.566 819.663,77.574L819.663,226.385C819.663,238.392 818.412,239.643 806.409,239.643L797.657,239.643L797.657,241.862L910.917,241.862C914.915,241.862 918.43,241.369 920.187,239.643L920.438,239.643L919.69,251.224L921.933,251.365L926.16,183.609L922.181,183.609L920.689,203.621C918.932,227.636 907.436,237.392 883.404,237.392L833.644,237.392L833.644,237.142C836.64,234.14 839.136,229.638 839.136,224.134L839.136,149.838L849.148,149.838C863.163,149.838 876.178,152.59 876.178,176.605L876.178,190.363L878.397,190.349Z" style="fill:rgb(0,30,108);fill-rule:nonzero;"/>
                <path d="M952.198,241.862L1035.69,241.862L1035.69,239.643L1017.18,239.643C1005.18,239.643 1003.93,238.393 1003.93,226.387L1003.93,66.566L1018.43,66.566C1042.44,66.566 1050.44,71.317 1052.19,95.328L1052.95,105.624L1057.44,105.333L1053.69,47.592L1050.95,47.75L1052.19,62.096L935.693,62.096L936.939,47.5L934.193,47.342L930.442,105.333L934.934,105.623L935.693,95.328C936.944,71.317 945.446,66.566 969.452,66.566L984.456,66.566L984.456,226.387C984.456,238.393 983.206,239.643 971.203,239.643L952.198,239.643L952.198,241.862Z" style="fill:rgb(0,30,108);fill-rule:nonzero;"/>
                <path d="M1065.73,241.862L1135.23,241.862L1135.23,239.643L1120.72,239.643C1108.71,239.643 1107.21,238.392 1107.21,226.383L1107.21,79.823C1107.21,74.07 1105.96,69.818 1102.96,66.816L1102.96,66.566L1128.97,66.566C1159.38,66.566 1175.76,84.426 1175.76,117.595C1175.76,150.926 1159.38,168.874 1128.97,168.874L1117.46,168.874L1117.46,173.094L1120.47,173.094C1131.73,173.094 1136.98,179.599 1145.24,192.358L1162.75,219.378C1170.63,231.538 1179.32,244.482 1192.1,244.482C1197.99,244.482 1204.77,241.735 1212.74,234.891L1218.24,230.138L1216.87,228.353L1211.36,233.107C1208.91,235.198 1206.53,235.892 1204.21,235.892C1196.23,235.892 1186.17,220.528 1179.75,210.372L1167.25,190.607C1161.75,181.915 1151.24,174.595 1139.48,173.344L1139.48,171.853L1144.49,171.605C1174.51,168.874 1197.48,148.112 1197.48,117.595C1197.48,84.326 1171,62.096 1130.98,62.096L1065.73,62.096L1065.73,64.315L1074.48,64.315C1086.48,64.315 1087.73,65.565 1087.73,77.572L1087.73,226.383C1087.73,238.392 1086.48,239.643 1074.48,239.643L1065.73,239.643L1065.73,241.862Z" style="fill:rgb(0,30,108);fill-rule:nonzero;"/>
                <path d="M1237.27,241.862L1323.52,241.862L1323.52,239.643L1305.01,239.643C1293.01,239.643 1291.76,238.393 1291.76,226.387L1291.76,153.354L1328.77,81.822C1335.39,69.011 1338.27,64.065 1345.52,64.065L1349.77,64.065L1349.77,62.096L1301.51,62.096L1301.51,64.065L1316.51,64.065C1324.4,64.065 1327.19,66.861 1327.19,71.04C1327.19,74.148 1325.65,78.019 1323.52,82.072L1293.51,140.098C1292.26,142.599 1290.51,146.601 1290.26,148.102L1288.51,148.102C1288.26,146.601 1286.51,142.349 1285.27,140.098L1253.03,78.571C1249.03,71.067 1246.03,65.815 1242.78,64.564L1242.78,64.065L1258.28,64.065L1258.28,62.096L1211.02,62.096L1211.02,64.065L1216.27,64.065C1223.52,64.065 1226.77,70.067 1232.77,81.572L1272.03,157.106L1272.03,226.387C1272.03,238.393 1270.78,239.643 1258.78,239.643L1237.27,239.643L1237.27,241.862Z" style="fill:rgb(0,30,108);fill-rule:nonzero;"/>
                <path d="M1502.59,84.326L1539.07,173.876L1464.58,173.876L1463.08,178.095L1466.12,178.095C1478.99,179.173 1486.44,187.058 1486.44,198.955C1486.44,199.9 1486.39,200.87 1486.3,201.864L1485.59,208.619C1483.06,232.636 1467.58,237.392 1443.56,237.392L1392.79,237.392L1392.79,237.142C1395.79,234.14 1398.29,229.636 1398.29,224.132L1398.29,77.322C1398.29,65.315 1399.79,64.315 1411.79,64.315L1420.55,64.315L1420.55,62.096L1356.81,62.096L1356.81,64.315L1365.56,64.315C1377.56,64.315 1378.81,65.315 1378.81,77.322L1378.81,224.632C1378.81,236.641 1377.56,239.643 1365.56,239.643L1356.81,239.643L1356.81,241.862L1479.09,241.862C1483.09,241.862 1484.09,241.369 1485.83,239.643L1486.08,239.643L1485.09,254.366L1487.56,254.616L1491.48,206.21C1491.53,205.531 1491.57,204.847 1491.57,204.161C1491.57,193.39 1485.47,182.094 1475.83,178.095L1540.76,178.095L1560.83,227.384C1562.58,231.637 1565.33,237.892 1568.58,239.143L1568.58,239.643L1549.33,239.643L1549.33,241.862L1597.09,241.862L1597.09,239.643L1595.09,239.643C1586.84,239.643 1585.34,236.14 1580.33,224.131L1521.32,79.573C1520.09,76.563 1519.07,70.068 1519.07,65.065L1519.07,62.096L1499.79,62.096L1429.56,224.131L1434.31,224.131L1495.33,84.326C1497.59,79.073 1498.34,75.821 1498.34,74.32L1500.59,74.32C1500.59,77.072 1500.84,80.324 1502.59,84.326L1502.59,84.326Z" style="fill:rgb(0,30,108);fill-rule:nonzero;"/>
            </g>
        </g>
    </g>
</svg>
