<?xml version="1.0" encoding="UTF-8" standalone="no"?>
<!DOCTYPE svg PUBLIC "-//W3C//DTD SVG 1.1//EN" "http://www.w3.org/Graphics/SVG/1.1/DTD/svg11.dtd">
<svg width="100%" height="100%" viewBox="0 0 141 40" version="1.1" xmlns="http://www.w3.org/2000/svg" xmlns:xlink="http://www.w3.org/1999/xlink" xml:space="preserve" xmlns:serif="http://www.serif.com/" style="fill-rule:evenodd;clip-rule:evenodd;stroke-linejoin:round;stroke-miterlimit:2;">
    <g transform="matrix(1,0,0,1,-1124.19,-487.857)">
        <g transform="matrix(2.92976,0,0,2.30474,0,0)">
            <g transform="matrix(0.341325,0,0,0.433889,0,0)">
                <path d="M1264.61,502.339C1264.61,498.036 1262.09,494.678 1257.05,492.264C1252.01,489.851 1244.88,488.644 1235.64,488.644C1225.78,488.644 1214.7,491.897 1202.43,498.404C1189.31,491.372 1178.13,487.857 1168.9,487.857C1164.28,487.857 1160.29,489.536 1156.93,492.894L1158.66,493.681C1161.08,490.638 1164.65,489.116 1169.37,489.116C1177.24,489.116 1187.73,492.474 1200.85,499.191C1197.49,500.765 1194.4,502.208 1191.57,503.52C1188.73,504.832 1186.16,505.96 1183.85,506.904C1170.73,498.719 1157.25,494.626 1143.4,494.626C1138.67,494.626 1134.42,495.728 1130.64,497.931C1126.34,500.345 1124.19,503.284 1124.19,506.747C1124.19,513.463 1128.97,517.294 1138.52,518.238C1139.14,524.535 1145.29,527.683 1156.93,527.683C1164.38,527.683 1177.71,523.8 1196.92,516.034C1202.37,518.763 1207.67,520.809 1212.82,522.174C1217.96,523.538 1223.1,524.22 1228.24,524.22C1239.58,524.22 1245.98,520.494 1247.45,513.043C1258.89,512.099 1264.61,508.531 1264.61,502.339ZM1263.5,502.339C1263.5,508.006 1258.15,511.154 1247.45,511.784C1246.5,504.123 1240.84,500.293 1230.45,500.293C1228.35,500.293 1225.99,500.712 1223.36,501.552C1220.74,502.392 1217.75,503.546 1214.39,505.015L1206.36,500.608C1218.95,493.786 1230.29,490.375 1240.36,490.375C1247.29,490.375 1252.88,491.451 1257.13,493.603C1261.38,495.754 1263.5,498.666 1263.5,502.339ZM1246.35,511.784C1240.89,512.099 1235.85,511.889 1231.23,511.154C1226.62,510.42 1222.37,509.056 1218.48,507.062C1225.41,504.018 1230.55,502.497 1233.91,502.497C1241.05,502.497 1245.19,505.592 1246.35,511.784ZM1246.19,513.043C1244.82,519.655 1238.89,522.961 1228.4,522.961C1218.54,522.961 1208.57,520.442 1198.49,515.405L1216.91,507.691C1221,509.79 1225.46,511.286 1230.29,512.178C1235.12,513.07 1240.42,513.358 1246.19,513.043ZM1212.97,505.487L1195.03,513.516L1187.79,509.58C1191.57,507.691 1194.9,506.065 1197.78,504.7C1200.67,503.336 1203.06,502.182 1204.94,501.237L1212.97,505.487ZM1193.45,514.145C1184.74,517.608 1177.11,520.232 1170.55,522.016C1163.99,523.8 1158.45,524.692 1153.94,524.692C1145.13,524.692 1140.4,522.646 1139.78,518.553C1141.98,518.868 1144.55,519.025 1147.49,519.025C1153.79,519.025 1160.19,518.317 1166.69,516.9C1173.2,515.483 1179.81,513.253 1186.53,510.21L1193.45,514.145ZM1182.28,507.691C1167.59,513.883 1153.37,516.821 1139.62,516.507C1139.62,513.148 1140.88,510.105 1143.4,507.376C1146.23,504.333 1150.01,502.811 1154.73,502.811C1158.61,502.811 1160.87,504.333 1161.5,507.376C1160.66,507.167 1160.08,507.062 1159.77,507.062C1158.3,507.062 1157.56,507.901 1157.56,509.58C1157.56,510.735 1158.3,511.312 1159.77,511.312C1161.97,511.312 1163.07,510.157 1163.07,507.849C1163.07,506.275 1162.34,504.884 1160.87,503.677C1159.4,502.47 1157.35,501.867 1154.73,501.867C1149.8,501.867 1145.7,503.389 1142.45,506.432C1139.83,509.16 1138.52,512.466 1138.52,516.349C1129.81,515.615 1125.45,512.414 1125.45,506.747C1125.45,503.493 1127.44,500.817 1131.43,498.719C1133.22,497.669 1135.13,496.934 1137.18,496.515C1139.22,496.095 1141.35,495.885 1143.55,495.885C1156.99,495.885 1169.89,499.82 1182.28,507.691Z" style="fill:rgb(0,30,108);fill-rule:nonzero;"/>
            </g>
        </g>
    </g>
</svg>
